<?xml version="1.0" encoding="utf-8"?>
<!-- Generator: Adobe Illustrator 23.0.2, SVG Export Plug-In . SVG Version: 6.00 Build 0)  -->
<svg version="1.1" id="Capa_1" xmlns="http://www.w3.org/2000/svg" xmlns:xlink="http://www.w3.org/1999/xlink" x="0px" y="0px"
	 viewBox="0 0 841.89 858.33" style="enable-background:new 0 0 841.89 858.33;" xml:space="preserve">
<style type="text/css">
	.st0{fill:#0A080B;stroke:#070308;stroke-miterlimit:10;}
	.st1{fill:#FFFFFF;}
</style>
<circle class="st0" cx="422.26" cy="429.63" r="419.63"/>
<g>
	<g>
		<path class="st1" d="M698.96,295.99h-12.24v-36.73c0-6.76-5.48-12.24-12.24-12.24H625.5c-6.76,0-12.24,5.48-12.24,12.24v36.73
			h-93.02c-11.76-6.28-24.07-11.41-36.75-15.31v-33.66h36.73c20.25,0,36.73-16.48,36.73-36.73v-73.46
			c0-20.25-16.48-36.73-36.73-36.73H324.32c-20.25,0-36.73,16.48-36.73,36.73v73.46c0,20.25,16.48,36.73,36.73,36.73h36.73v33.66
			c-12.68,3.9-24.99,9.03-36.75,15.31c-29.1,0-65.57,0-93.02,0v-36.73c0-6.76-5.48-12.24-12.24-12.24h-48.97
			c-6.76,0-12.24,5.48-12.24,12.24v36.73h-12.24c-20.25,0-36.73,16.48-36.73,36.73c0,12.07,0,280.8,0,293.83
			c0,20.25,16.48,36.73,36.73,36.73H324.3c29.99,16.01,63.78,24.49,97.97,24.49s67.98-8.47,97.97-24.49h178.72
			c20.25,0,36.73-16.48,36.73-36.73c0-12.07,0-280.8,0-293.83C735.68,312.47,719.21,295.99,698.96,295.99z M637.74,271.5h24.49
			v24.49h-24.49V271.5z M324.32,222.53c-6.75,0-12.24-5.49-12.24-12.24v-73.46c0-6.75,5.49-12.24,12.24-12.24h195.89
			c6.75,0,12.24,5.49,12.24,12.24v73.46c0,6.75-5.49,12.24-12.24,12.24H324.32z M458.99,247.02v27.75
			c-12.08-2.15-24.37-3.26-36.73-3.26c-12.36,0-24.65,1.11-36.73,3.26v-27.74H458.99z M182.3,271.5h24.49v24.49H182.3V271.5z
			 M133.33,332.72c0-6.75,5.49-12.37,12.24-12.37h142.6c-16.58,13.98-30.94,30.6-42.5,49.09H133.33V332.72z M133.33,393.81h99.23
			c-12.1,26.79-18.43,56.16-18.43,85.82c0,29.66,6.33,58.92,18.43,85.7h-99.23V393.81z M145.57,638.8
			c-6.75,0-12.24-5.49-12.24-12.24v-36.73h112.34c11.56,18.5,25.92,35,42.5,48.97H145.57z M422.26,663.28
			c-101.5,0-183.65-82.3-183.65-183.65c0-100.96,81.77-183.65,183.65-183.65c101.43,0,183.65,82.24,183.65,183.65
			C605.91,581.36,523.39,663.28,422.26,663.28z M711.2,626.55c0,6.75-5.49,12.24-12.24,12.24h-142.6
			c16.58-13.98,30.94-30.48,42.5-48.97H711.2V626.55z M711.2,565.34h-99.23c12.1-26.79,18.43-56.04,18.43-85.7
			s-6.33-58.92-18.43-85.7h99.23V565.34z M711.2,369.45H598.86c-11.56-18.5-25.92-35-42.5-48.97h142.6
			c6.75,0,12.24,5.49,12.24,12.24V369.45z"/>
	</g>
</g>
</svg>
