<?xml version="1.0" encoding="utf-8"?>
<!-- Generator: Adobe Illustrator 23.0.2, SVG Export Plug-In . SVG Version: 6.00 Build 0)  -->
<svg version="1.1" id="Capa_1" xmlns="http://www.w3.org/2000/svg" xmlns:xlink="http://www.w3.org/1999/xlink" x="0px" y="0px"
	 viewBox="0 0 841.89 858.33" style="enable-background:new 0 0 841.89 858.33;" xml:space="preserve">
<style type="text/css">
	.st0{fill:#0A080B;stroke:#070308;stroke-miterlimit:10;}
	.st1{fill:#FFFFFF;}
</style>
<circle class="st0" cx="422.29" cy="430" r="420"/>
<g>
	<path class="st1" d="M191.6,205.89h96.67h137.71h134.76h92.23c15.63,0,29.85,6.41,40.15,16.66c10.29,10.29,16.66,24.52,16.66,40.15
		v33.36v267.89v33.18c0,15.63-6.41,29.85-16.66,40.15c-10.29,10.29-24.52,16.66-40.15,16.66h-89.84c-0.75,0.14-1.54,0.19-2.39,0.19
		c-0.8,0-1.59-0.05-2.39-0.19H428.37c-0.75,0.14-1.54,0.19-2.39,0.19c-0.8,0-1.59-0.05-2.39-0.19H290.66
		c-0.75,0.14-1.54,0.19-2.39,0.19c-0.8,0-1.59-0.05-2.39-0.19H191.6c-15.63,0-29.85-6.41-40.15-16.66
		c-10.29-10.25-16.66-24.52-16.66-40.15v-33.18V296.06v-33.36c0-15.63,6.41-29.85,16.66-40.15
		C161.75,212.3,175.98,205.89,191.6,205.89L191.6,205.89z M393.05,352.07l96.06,67.01c1.5,0.94,2.85,2.25,3.93,3.79
		c4.3,6.22,2.71,14.69-3.46,19l-95.69,66.16c-2.34,1.92-5.38,3.09-8.66,3.09c-7.58,0-13.71-6.13-13.71-13.71V363.25h0.05
		c0-2.71,0.8-5.43,2.43-7.81C378.35,349.26,386.87,347.76,393.05,352.07L393.05,352.07z M574.41,577.65v48.9h78.52
		c8.1,0,15.44-3.32,20.78-8.66c5.33-5.33,8.66-12.68,8.66-20.78v-19.47H574.41L574.41,577.65z M547.04,626.55v-48.9H439.7v48.9
		H547.04L547.04,626.55z M412.32,626.55v-48.9H301.99v48.9H412.32L412.32,626.55z M274.57,626.55v-48.9h-112.4v19.47
		c0,8.1,3.32,15.44,8.66,20.78c5.33,5.33,12.68,8.66,20.78,8.66H274.57L274.57,626.55z M162.17,550.28h126.11h137.71h134.76h121.66
		V309.77H560.75H425.99H288.28H162.17V550.28L162.17,550.28z M547.04,282.39v-49.13H439.7v49.09h107.34V282.39z M574.41,233.26
		v49.09h107.95v-19.65c0-8.1-3.32-15.44-8.66-20.78c-5.33-5.33-12.68-8.66-20.78-8.66L574.41,233.26L574.41,233.26z M412.32,282.39
		v-49.13H301.99v49.09h110.34V282.39z M274.57,282.39v-49.13H191.6c-8.1,0-15.44,3.32-20.78,8.66c-5.33,5.33-8.66,12.68-8.66,20.78
		v19.65h112.4V282.39z"/>
</g>
</svg>
