<?xml version="1.0" encoding="utf-8"?>
<!-- Generator: Adobe Illustrator 23.0.2, SVG Export Plug-In . SVG Version: 6.00 Build 0)  -->
<svg version="1.1" id="Capa_1" xmlns="http://www.w3.org/2000/svg" xmlns:xlink="http://www.w3.org/1999/xlink" x="0px" y="0px"
	 viewBox="0 0 841.9 849.3" style="enable-background:new 0 0 841.9 849.3;" xml:space="preserve">
<style type="text/css">
	.st0{fill:#0A080B;stroke:#070308;stroke-miterlimit:10;}
	.st1{fill:#FEFEFD;}
</style>
<circle class="st0" cx="421.2" cy="418.8" r="418.8"/>
<path class="st1" d="M112.1,701.4c-3.6-32.9-6.8-80.1-3.1-137c5.5-85.4,20.1-96.7,26.8-100.4c23.4-13,45.7,13.5,108.7,32.4
	c40.4,12.2,80.5,12.7,160.6,13.7c79.6,1,119.4,1.6,145-7.1c50-16.9,92.8-50.2,130.9-30.3c5.5,2.9,9.1,5.9,9.9,6.6
	c28.7,24.7,17.4,71.8,13.7,135.8c-1.5,26.2-2.2,63.8,2,110.2c-3.6,3.4-7.8,7.4-12.9,11.5c-5.8,4.7-11.6,9.5-17.5,14.2
	c-29.7,22.8-105.7,74.8-217.1,84.9c-115,10.5-201.4-29.7-234.4-47.1c-17.1-9.1-36.2-20.8-56-35.8c-14.5-11-27.1-22-37.9-32.4
	C124.6,714.3,118.4,707.8,112.1,701.4z"/>
<circle class="st1" cx="398.9" cy="305.1" r="174.1"/>
</svg>
