<?xml version="1.0" encoding="utf-8"?>
<!-- Generator: Adobe Illustrator 23.0.2, SVG Export Plug-In . SVG Version: 6.00 Build 0)  -->
<svg version="1.1" xmlns="http://www.w3.org/2000/svg" xmlns:xlink="http://www.w3.org/1999/xlink" x="0px" y="0px"
	 viewBox="0 0 841.89 557.94" style="enable-background:new 0 0 841.89 557.94;" xml:space="preserve">
<style type="text/css">
	.st0{fill:#FFFFFF;stroke:#FFFFFF;stroke-miterlimit:10;}
	.st1{font-family:'BellMT';}
	.st2{font-size:255.0699px;}
	.st3{letter-spacing:0.99;}
</style>
<g id="Capa_2">
</g>
<g id="Layer_1">
	<text transform="matrix(1.0094 0 0 1 41.8388 387.548)" class="st0 st1 st2 st3">yomara</text>
</g>
<g id="Capa_3">
	<path class="st0" d="M341.98,281.18c-0.15-0.24,7.71-6.36,19.49-11.75c5.34-2.44,10.09-4.47,16.14-5.38
		c4.57-0.68,15.3-1.5,28.77,5.34c3.88-2.95,10.1-6.71,18.27-7.61c3.11-0.34,5.96-0.08,11.65,0.44c6.23,0.57,12.36,0.95,19.93,3.44
		c4.23,1.39,9.01,3.26,14.09,5.78c9.02,4.48,15.06,9.12,15.07,9.1c0,0-8.88-7.57-18.7-12.61c-5.56-2.85-10.18-4.08-19.39-6.59
		c-6.31-1.72-14.55-3.93-25.46-5.05c0,0-11.73-1.21-22.26-0.44C367.97,258.14,342.26,281.61,341.98,281.18z"/>
</g>
<g id="Capa_4">
	<path class="st0" d="M504.6,278.13c-0.88,1.44-1.75,2.88-2.63,4.32c-1.22-6.41-3.23-13.89-6.61-21.86
		c-4.55-10.74-10.19-19.05-15.15-25.13c8.6,1.47,17.47,3.16,26.56,5.1c9.21,1.97,18.04,4.06,26.48,6.24
		c-1.4,1.34-2.8,2.68-4.21,4.02c-6.79-2.23-14.73-4.3-23.79-5.74c-4.94-0.79-9.67-1.31-14.12-1.62c2.72,3.58,5.68,8.24,8.17,14.04
		C502.64,265.29,504.02,272.54,504.6,278.13z"/>
</g>
<g id="Capa_5">
	<path class="st0" d="M543.74,239.38c4.32-1.6,6.62-5.86,5.69-9.53c-1.03-4.05-5.48-5.49-5.71-5.56c-0.98-1.52-2.9-4.04-6.15-6.06
		c-2.18-1.36-4.25-2.04-5.74-2.41c-0.19,1.09-0.46,3.59,0.76,6.35c1.95,4.39,6.15,5.92,6.89,6.17c0.93,0.96,2.42,2.77,3.38,5.43
		C543.7,236.09,543.79,238.11,543.74,239.38z"/>
</g>
<g id="Capa_6">
	<path class="st0" d="M526.74,211.18c-2.68,0.01-7.93-0.35-13.42-3.42c-3.06-1.71-5.25-3.74-6.7-5.33
		c-1.79-0.21-3.92-0.62-6.22-1.41c-5.14-1.77-8.72-4.61-10.84-6.6c0.46-1.84,0.89-4.4,0.74-7.43c-0.22-4.44-1.56-7.89-2.56-9.97
		c-5.7-5.93-12.41-12.23-20.25-18.51c-12.89-10.33-25.4-17.88-36.18-23.39c9.06,1.9,38.93,9.35,56.58,36.21
		c4.78,7.27,7.68,14.47,9.47,20.73c4.69,1.8,10.37,4.49,16.26,8.59c3.16,2.19,5.87,4.44,8.17,6.56
		C523.45,208.52,525.09,209.85,526.74,211.18z"/>
</g>
<g id="Capa_7">
	<path class="st0" d="M456.86,170.35c7.34,0.24,12.68,2.14,15.81,3.55c5.88,2.65,7.26,5.07,7.8,6.5c0.54,1.45,0.57,2.79,0.5,3.72
		c-0.91,0.76-1.82,1.52-2.74,2.28c-2.12-0.64-4.48-1.54-6.95-2.85C463.81,179.59,459.28,173.98,456.86,170.35z"/>
</g>
<g id="Capa_8">
	<path class="st0" d="M425.04,135.76c-2.13-2.4-5.27-6.15-8.65-11.06c-4.55-6.6-5.28-9.16-9.35-14.92
		c-2.83-4.02-5.66-7.06-11.31-13.14c-3.84-4.13-9.11-9.6-15.7-15.85c0.37,2.15,1.15,5.31,2.97,8.72c1.88,3.52,3.83,5.35,6.28,8.26
		c2.18,2.6,5.13,6.51,8.05,11.91c1.37,2.51,2.73,5.27,3.98,8.3c3.22,7.76,4.85,14.97,5.68,20.95c-0.16-2.11-0.16-6.01,1.78-10.26
		c1.03-2.26,2.32-3.96,3.39-5.16c1.38,1.6,3.64,4.7,4.63,9.15c0.52,2.35,0.54,4.41,0.42,5.98
		C419.83,137.68,422.43,136.72,425.04,135.76z"/>
</g>
<g id="Capa_9">
	<path class="st0" d="M369.72,81.04c-1.31,11.01-2.02,24.36-0.98,39.47c0.88,12.87,2.85,24.27,5.1,33.9c-0.5-0.67-1-1.34-1.5-2.02
		c-3.29-6.39-7.34-16.15-9.05-28.59c-2.26-16.4,0.62-29.74,2.91-37.39C367.36,84.62,368.54,82.83,369.72,81.04z"/>
</g>
<g id="Capa_10">
	<path class="st0" d="M392.01,158.46l-0.27-1.28c0.26-5.19,0.13-11.52-1.02-18.63c-1.76-10.91-5.25-19.66-8.32-25.83
		c-0.42,2.18-0.85,6.04,0.31,10.61c0.9,3.56,2.43,6.24,3.58,7.92c-0.01,0.02-1.39,3.82-1.4,3.85c0,0.01-1.06,2.92-1.07,2.94
		c0.48,0.2,1.42,0.66,2.15,1.66c1.39,1.92,0.76,4.14,0.67,4.44c-0.94,0.36-1.89,0.71-2.83,1.07c1.17,0.78,2.56,1.89,3.87,3.44
		C390.85,152.37,391.72,156.42,392.01,158.46z"/>
</g>
</svg>
