<?xml version="1.0" encoding="utf-8"?>
<!-- Generator: Adobe Illustrator 23.0.2, SVG Export Plug-In . SVG Version: 6.00 Build 0)  -->
<svg version="1.1" id="Capa_1" xmlns="http://www.w3.org/2000/svg" xmlns:xlink="http://www.w3.org/1999/xlink" x="0px" y="0px"
	 viewBox="0 0 841.89 1190.55" style="enable-background:new 0 0 841.89 1190.55;" xml:space="preserve">
<style type="text/css">
	.st0{fill:#FFFFFF;stroke:#000000;stroke-miterlimit:10;}
</style>
<path class="st0" d="M525.33,270.67H142c-28.53,0-51.67-23.13-51.67-51.67v0c0-28.53,23.13-51.67,51.67-51.67h383.33
	c28.53,0,51.67,23.13,51.67,51.67v0C577,247.53,553.87,270.67,525.33,270.67z"/>
<path class="st0" d="M525.33,409.67H142c-28.53,0-51.67-23.13-51.67-51.67v0c0-28.53,23.13-51.67,51.67-51.67h383.33
	c28.53,0,51.67,23.13,51.67,51.67v0C577,386.53,553.87,409.67,525.33,409.67z"/>
<path class="st0" d="M525.33,548.67H142c-28.53,0-51.67-23.13-51.67-51.67v0c0-28.53,23.13-51.67,51.67-51.67h383.33
	c28.53,0,51.67,23.13,51.67,51.67v0C577,525.53,553.87,548.67,525.33,548.67z"/>
</svg>
