<?xml version="1.0" encoding="utf-8"?>
<!-- Generator: Adobe Illustrator 23.0.2, SVG Export Plug-In . SVG Version: 6.00 Build 0)  -->
<svg version="1.1" id="Capa_1" xmlns="http://www.w3.org/2000/svg" xmlns:xlink="http://www.w3.org/1999/xlink" x="0px" y="0px"
	 viewBox="0 0 2489 2500" style="enable-background:new 0 0 2489 2500;" xml:space="preserve">
<style type="text/css">
	.st0{fill:#E0E0E0;}
	.st1{fill-rule:evenodd;clip-rule:evenodd;fill:#FFFFFF;}
	.st2{fill:#FFFFFF;}
</style>
<path class="st0" d="M2126.29,363.3C1892.31,129.16,1581.19,0.14,1249.71,0C566.64,0,10.76,555.7,10.48,1238.74
	c-0.08,218.34,56.97,431.46,165.4,619.33L0.08,2500l656.93-172.26c181,98.71,384.78,150.72,592.17,150.81h0.53h0.01
	c682.96,0,1238.92-555.8,1239.21-1238.81C2489.03,908.71,2360.24,597.46,2126.29,363.3L2126.29,363.3z M1249.71,2269.32h-0.4
	c-184.85-0.1-366.12-49.73-524.23-143.55l-37.63-22.31l-389.83,102.21l104.08-379.95l-24.52-38.95
	c-103.11-163.95-157.54-353.41-157.47-547.96C219.93,671.1,681.96,209.24,1250.1,209.24c275.12,0.11,533.71,107.35,728.18,301.97
	c194.46,194.61,301.48,453.32,301.4,728.46C2279.44,1807.39,1817.4,2269.32,1249.71,2269.32z"/>
<path class="st1" d="M943.48,712.84c-22.93-50.97-47.06-51.99-68.88-52.89c-17.84-0.77-38.26-0.72-58.66-0.72
	c-20.41,0-53.57,7.67-81.62,38.3c-28.06,30.63-107.14,104.67-107.14,255.26c0,150.6,109.69,296.12,124.98,316.56
	c15.31,20.41,211.75,339.31,522.86,462c258.56,101.96,311.17,81.68,367.3,76.58c56.12-5.1,181.09-74.03,206.6-145.5
	c25.51-71.46,25.51-132.71,17.86-145.52c-7.65-12.75-28.06-20.41-58.67-35.71c-30.61-15.31-181.09-89.36-209.15-99.57
	c-28.06-10.2-48.47-15.31-68.88,15.34c-20.41,30.61-79.03,99.54-96.89,119.94c-17.86,20.45-35.71,23.01-66.33,7.7
	c-30.61-15.35-129.19-47.64-246.14-151.91c-90.99-81.12-152.42-181.31-170.28-211.95c-17.86-30.61-1.91-47.19,13.44-62.45
	c13.74-13.71,30.61-35.73,45.92-53.6c15.27-17.87,20.38-30.63,30.58-51.04c10.2-20.44,5.1-38.31-2.55-53.62
	S970.7,773.36,943.48,712.84L943.48,712.84z"/>
<path class="st2" d="M2122.36,373.48c-231.29-231.45-538.85-358.99-866.52-359.13c-675.23,0-1224.73,549.32-1225,1224.52
	c-0.08,215.83,56.31,426.51,163.5,612.22L20.56,2485.65l649.39-170.28c178.92,97.57,380.37,148.99,585.37,149.07h0.52h0.01
	c675.12,0,1224.7-549.42,1224.98-1224.59C2480.94,912.63,2353.63,604.95,2122.36,373.48L2122.36,373.48z M1255.84,2257.62h-0.4
	c-182.73-0.1-361.92-49.15-518.22-141.9l-37.2-22.05l-385.36,101.04l102.88-375.58l-24.23-38.5
	c-101.93-162.07-155.74-349.36-155.66-541.67c0.22-561.2,456.95-1017.76,1018.56-1017.76c271.97,0.11,527.58,106.12,719.83,298.5
	c192.23,192.38,298.02,448.11,297.94,720.1C2273.75,1801,1817.01,2257.62,1255.84,2257.62z"/>
</svg>
